<svg xmlns="http://www.w3.org/2000/svg" viewBox="0 0 15.26 16.32"><defs><style>.cls-1{fill:#231f20;}</style></defs><title>자산 6</title><g id="레이어_2" data-name="레이어 2"><g id="레이어_1-2" data-name="레이어 1"><path class="cls-1" d="M8.29,2.61a11.2,11.2,0,0,1-2,5.72,13.33,13.33,0,0,1-2.16,2.4,16.14,16.14,0,0,1-2.86,2,.67.67,0,0,1-.28.06.29.29,0,0,1-.23-.14L.08,11.8a.25.25,0,0,1,0-.24.37.37,0,0,1,.15-.2A12.66,12.66,0,0,0,4.35,7.92,9.41,9.41,0,0,0,6.26,3.55a.69.69,0,0,0,0-.45A.62.62,0,0,0,5.86,3H1C.89,3,.82,2.91.82,2.75V1.55c0-.13.07-.2.22-.2H7.21a1.26,1.26,0,0,1,1,.32A1.33,1.33,0,0,1,8.29,2.61Zm6.84,5.25a.28.28,0,0,1-.18.06h-2.3V16c0,.15-.08.22-.23.22H10.9a.19.19,0,0,1-.22-.15V.27a.19.19,0,0,1,.16-.22h1.58c.15,0,.23.07.23.22v6H15a.28.28,0,0,1,.18.06.17.17,0,0,1,.08.14v1.2A.27.27,0,0,1,15.13,7.86Z"/><path class="cls-1" d="M10.87,16.32a.24.24,0,0,1-.14-.05.23.23,0,0,1-.1-.15V.27a.27.27,0,0,1,0-.17.25.25,0,0,1,.16-.1h1.59a.25.25,0,0,1,.28.27V6.22H15a.28.28,0,0,1,.22.08.21.21,0,0,1,.09.17v1.2a.32.32,0,0,1-.09.23h0A.31.31,0,0,1,15,8H12.7V16a.25.25,0,0,1-.28.27H10.87ZM10.87.1h0a.24.24,0,0,0-.09.06.12.12,0,0,0,0,.1V16.1a.15.15,0,0,0,.06.09.12.12,0,0,0,.1,0h1.53c.13,0,.18-.05.18-.17V7.87H15a.21.21,0,0,0,.15,0,.19.19,0,0,0,.06-.15V6.47a.11.11,0,0,0-.05-.09A.19.19,0,0,0,15,6.32H12.6V.27c0-.12,0-.17-.18-.17H10.87ZM1,12.84H1a.34.34,0,0,1-.27-.16L0,11.83a.33.33,0,0,1,0-.29.39.39,0,0,1,.18-.22,12.79,12.79,0,0,0,4.1-3.43,9.32,9.32,0,0,0,1.9-4.35.64.64,0,0,0,0-.41A.53.53,0,0,0,5.87,3H1C.92,3,.77,3,.77,2.75V1.55A.24.24,0,0,1,1,1.3H7.21a1.3,1.3,0,0,1,1,.34h0a1.41,1.41,0,0,1,.08,1,11.38,11.38,0,0,1-2,5.74,13.08,13.08,0,0,1-2.17,2.41,16.19,16.19,0,0,1-2.86,2A.81.81,0,0,1,1,12.84Zm4.94-9.9a.6.6,0,0,1,.36.12h0v0a.79.79,0,0,1,0,.48A9.4,9.4,0,0,1,4.39,8,13,13,0,0,1,.26,11.41a.23.23,0,0,0-.13.17h0a.17.17,0,0,0,0,.19l.67.84a.24.24,0,0,0,.19.12H1a.74.74,0,0,0,.25-.05,16.94,16.94,0,0,0,2.85-2A13.62,13.62,0,0,0,6.25,8.3a11.21,11.21,0,0,0,2-5.69h0a1.27,1.27,0,0,0-.07-.9,1.22,1.22,0,0,0-1-.3H1c-.12,0-.17.05-.17.15v1.2c0,.14.05.19.17.19H5.93Z"/></g></g></svg>