<svg xmlns="http://www.w3.org/2000/svg" viewBox="0 0 13.6 23.55"><title>자산 25</title><g id="레이어_2" data-name="레이어 2"><g id="레이어_1-2" data-name="레이어 1"><path d="M3.05,21.46c.35,0,.68-.05,1-.09l0,.38A27.47,27.47,0,0,1,.16,22L.1,21.54H1V18.4H.26V18H3.75v.43h-.7Zm-1.59.07,1.09,0V18.4H1.46ZM6,20.25H5v3.3H4.46V17.28H5v2.53H6Z"/><path d="M8,20.28a1.4,1.4,0,1,1,0-2.76,1.4,1.4,0,1,1,0,2.76Zm0-.42a1,1,0,1,0,0-1.92,1,1,0,1,0,0,1.92Zm3.6,3.19v.41H7.37V21.92h3.52v-.68H7.36v-.41h4V22.3H7.88v.75Zm-.23-2.54h-.51V17.28h.51Z"/><path d="M12.46,6,4.72,13.74a2.61,2.61,0,0,1-3.68,0,2.61,2.61,0,0,1,0-3.68L7.9,3.21a1.72,1.72,0,0,1,2.93,1.22,1.7,1.7,0,0,1-.5,1.21L4.25,11.72a.2.2,0,0,1-.27,0l-.35-.36a.17.17,0,0,1,0-.26L9.71,5a.86.86,0,0,0,0-1.19.86.86,0,0,0-1.19,0L1.67,10.69a1.67,1.67,0,0,0-.51,1.21,1.71,1.71,0,0,0,.51,1.22,1.74,1.74,0,0,0,2.43,0l7.74-7.74a2.57,2.57,0,0,0,.74-1.81,2.53,2.53,0,0,0-.74-1.8A2.58,2.58,0,0,0,10,1a2.53,2.53,0,0,0-1.8.75L.82,9.18a.2.2,0,0,1-.27,0L.2,8.82a.18.18,0,0,1,0-.27l7.41-7.4a3.43,3.43,0,0,1,5.85,2.42A3.4,3.4,0,0,1,12.46,6Z"/><path d="M.1,8.45,7.51,1A3.57,3.57,0,0,1,12.56,6.1h0L4.82,13.84a2.75,2.75,0,0,1-3.88,0A2.76,2.76,0,0,1,.94,10L7.8,3.11a1.86,1.86,0,0,1,2.63,2.63L4.35,11.82a.33.33,0,0,1-.23.1.37.37,0,0,1-.24-.1l-.35-.36a.29.29,0,0,1-.1-.23h0a.33.33,0,0,1,.1-.24L9.6,4.92a.71.71,0,0,0,0-1,.69.69,0,0,0-1,0L1.77,10.79a1.53,1.53,0,0,0-.46,1.11A1.58,1.58,0,0,0,4,13l7.74-7.75a2.41,2.41,0,0,0,0-3.4A2.47,2.47,0,0,0,10,1.16a2.38,2.38,0,0,0-1.7.71L.92,9.28a.33.33,0,0,1-.23.1.37.37,0,0,1-.24-.1L.1,8.92A.3.3,0,0,1,0,8.69.33.33,0,0,1,.1,8.45Zm11.84-3L4.2,13.22A1.87,1.87,0,0,1,1,11.9a1.84,1.84,0,0,1,.55-1.31L8.42,3.73a1,1,0,0,1,1.39,0,1,1,0,0,1,0,1.39L3.73,11.2l0,0h0l0,0,.35.36h0l6.11-6.09A1.58,1.58,0,1,0,8,3.31L1.14,10.16a2.46,2.46,0,0,0,1.74,4.2,2.47,2.47,0,0,0,1.74-.72L12.36,5.9A3.3,3.3,0,0,0,10,.28a3.26,3.26,0,0,0-2.32,1L.3,8.65a0,0,0,0,0,0,.07l.35.36H.72L8.13,1.67a2.69,2.69,0,0,1,4.59,1.9A2.72,2.72,0,0,1,11.94,5.48Z"/></g></g></svg>