<svg xmlns="http://www.w3.org/2000/svg" viewBox="0 0 30.13 11.68"><defs><style>.cls-1{fill:#fff;}</style></defs><title>자산 33</title><g id="레이어_2" data-name="레이어 2"><g id="레이어_1-2" data-name="레이어 1"><path d="M19,4.26A3.83,3.83,0,0,0,20.9,7.45l-.38.48a4.17,4.17,0,0,1-1.86-2.39,4.28,4.28,0,0,1-1.87,2.54l-.38-.49a4,4,0,0,0,1.95-3.33V2.87H19Zm4.52,1.52H22.23V9.69h-.62V2.21h.62V5.26h1.25Z"/><path d="M28,6.6a3.2,3.2,0,0,1-1.91-1.74A3.19,3.19,0,0,1,24.2,6.74l-.31-.47A2.75,2.75,0,0,0,25.8,3.81V3.34H24.05v-.5h4.11v.5H26.42v.47a2.61,2.61,0,0,0,1.92,2.31ZM30.13,9v.51h-5V7.18h.6V9ZM29.9,7.7h-.61V2.21h.61Z"/><rect width="14.49" height="11.68" rx="1.83"/><circle class="cls-1" cx="5.52" cy="3.48" r="0.74"/><polygon class="cls-1" points="4.56 6.65 5.35 7.82 6.13 8.99 4.56 8.99 3 8.99 3.78 7.82 4.56 6.65"/><path class="cls-1" d="M6.13,9.39H3a.39.39,0,0,1-.35-.21.4.4,0,0,1,0-.41L4.23,6.43a.41.41,0,0,1,.66,0L6.46,8.77a.4.4,0,0,1-.33.62Zm-2.39-.8H5.39L4.56,7.36Z"/><polygon class="cls-1" points="8.85 5.02 10.17 7.01 11.49 8.99 8.85 8.99 6.21 8.99 7.53 7.01 8.85 5.02"/><path class="cls-1" d="M11.49,9.39H6.21a.39.39,0,0,1-.35-.21.4.4,0,0,1,0-.41l2.64-4a.41.41,0,0,1,.66,0l2.64,4a.4.4,0,0,1,0,.41A.39.39,0,0,1,11.49,9.39ZM7,8.59h3.8L8.85,5.74Z"/></g></g></svg>