<svg xmlns="http://www.w3.org/2000/svg" viewBox="0 0 16.9 14.62"><defs><style>.cls-1{fill:#231f20;}</style></defs><title>자산 8</title><g id="레이어_2" data-name="레이어 2"><g id="레이어_1-2" data-name="레이어 1"><path class="cls-1" d="M11.61,2.27a11,11,0,0,1-1.55,2.67A15.77,15.77,0,0,1,7.65,7.43,19.74,19.74,0,0,1,4.47,9.62,24.35,24.35,0,0,1,.62,11.56c-.2.08-.32-.12-.36-.23L0,11c0-.13,0-.22.17-.27a23.28,23.28,0,0,0,3.5-1.74A18.27,18.27,0,0,0,6.53,7,14,14,0,0,0,8.7,4.84a10.46,10.46,0,0,0,1.45-2.37c.07-.15.08-.26,0-.32a.6.6,0,0,0-.37-.09L3.63,2q-.24,0-.18-.21l.18-.56A.27.27,0,0,1,3.93,1l6.54.08c.62,0,1,.1,1.14.29A.9.9,0,0,1,11.61,2.27Zm-.93,12.35H10c-.18,0-.25-.07-.2-.22L14.63.22A.33.33,0,0,1,15,0h.58c.18,0,.25.08.2.23l-1.82,5.6h2.74a.36.36,0,0,1,.2.06.14.14,0,0,1,0,.15l-.17.54a.29.29,0,0,1-.13.14.46.46,0,0,1-.23.06H13.6L11,14.4A.3.3,0,0,1,10.68,14.62Z"/></g></g></svg>