<svg xmlns="http://www.w3.org/2000/svg" viewBox="0 0 18.01 20.98"><title>자산 23</title><g id="레이어_2" data-name="레이어 2"><g id="레이어_1-2" data-name="레이어 1"><path d="M0,5.15V0H.93V5.15c0,2.12.88,2.78,2,2.78s2-.66,2-2.78V0h.89V5.15c0,2.75-1.3,3.66-2.92,3.66S0,7.92,0,5.15Z"/><path d="M11.55,8.67,9.49,4.94H8V8.67H7V0H9.53c1.68,0,2.85.63,2.85,2.4a2.29,2.29,0,0,1-1.91,2.42l2.12,3.82ZM8,4.14H9.38c1.32,0,2.06-.55,2.06-1.71S10.7.82,9.38.82H7.94Z"/><path d="M13.44,0h.94V7.85H18v.82H13.44Z"/><path d="M6.58,18a16.64,16.64,0,0,1-3,.21h-.5V16.41H5.36v-.86H3v-.42H5.86v1.69H3.55v.95a16.94,16.94,0,0,0,3-.21Zm1.3,1.87c0,.72-.79,1.13-2.1,1.13s-2.09-.41-2.09-1.13.79-1.12,2.09-1.12S7.88,19.15,7.88,19.85Zm-.51,0c0-.45-.6-.7-1.59-.7s-1.58.25-1.58.7.61.72,1.58.72S7.37,20.31,7.37,19.85Zm.47-1.26H7.33V14.73h.51Z"/><path d="M14.47,19.67v.43H8.81v-.43Zm-1.23-2.54c0-.33,0-.65,0-1v-.36H9.49v-.43h4.26v.79a13.91,13.91,0,0,1-.25,3L13,19.15a9.75,9.75,0,0,0,.23-1.64l-3.81.22-.08-.43Z"/></g></g></svg>