<svg xmlns="http://www.w3.org/2000/svg" viewBox="0 0 15.73 16.79"><defs><style>.cls-1{fill:#231f20;}</style></defs><title>자산 7</title><g id="레이어_2" data-name="레이어 2"><g id="레이어_1-2" data-name="레이어 1"><path class="cls-1" d="M8.66,2.51A10.53,10.53,0,0,1,8.08,5.4,11.54,11.54,0,0,1,6.7,8.11,13.39,13.39,0,0,1,4.58,10.5a14.21,14.21,0,0,1-2.81,1.94c-.15.08-.25.06-.32,0l-.38-.6c-.08-.14-.06-.24.07-.29A13,13,0,0,0,3.71,9.78,11.55,11.55,0,0,0,5.63,7.69,11.26,11.26,0,0,0,6.88,5.31a9.71,9.71,0,0,0,.58-2.56c0-.17,0-.29-.07-.35a.52.52,0,0,0-.34-.09H1.76c-.14,0-.21-.08-.21-.23v-.6a.18.18,0,0,1,.16-.2H7.38a1.4,1.4,0,0,1,1.06.3A1.29,1.29,0,0,1,8.66,2.51Zm4.25,13.24h-.7a.21.21,0,0,1-.24-.17V.24A.21.21,0,0,1,12.14,0h.77a.21.21,0,0,1,.24.18V6.24h2.33a.28.28,0,0,1,.18.06.2.2,0,0,1,.07.16V7a.17.17,0,0,1-.07.15.21.21,0,0,1-.18.07H13.12v8.2a.23.23,0,0,1-.11.28.17.17,0,0,1-.1,0Z"/><rect class="cls-1" y="16.41" width="15.11" height="0.38"/></g></g></svg>