<svg xmlns="http://www.w3.org/2000/svg" viewBox="0 0 17.86 21.87"><defs><style>.cls-1{fill:#f7f8f8;isolation:isolate;}</style></defs><title>자산 22</title><g id="레이어_2" data-name="레이어 2"><g id="레이어_1-2" data-name="레이어 1"><path d="M5.67,19.61H4.16v2.26H3.64V19.61H2v2.26H1.49V19.61H0v-.43H5.67Zm-5-2.39c0-.84.88-1.36,2.17-1.36S5,16.38,5,17.22s-.87,1.36-2.18,1.36S.65,18.05.65,17.22Zm.52,0c0,.57.67.94,1.65.94s1.66-.37,1.66-.94-.68-.94-1.66-.94S1.17,16.65,1.17,17.22Z"/><path d="M11.76,19.82H10.25v2.05H9.74V19.82H8.11v2.05H7.6V19.82H6.08V19.4h5.68Zm-.63-1.1H6.85V15.9h4.2v.42H7.36v.76H10.9v.41H7.36v.81h3.77Z"/><path d="M17.86,20.59V21H12.18v-.43Zm-4.49-4.53v1.18h3.29V16.06h.5v3.25H12.87V16.06Zm0,2.83h3.29V17.66H13.37Z"/><rect x="0.94" width="15.99" height="12.84" rx="2.31"/><polygon class="cls-1" points="11.59 6.42 9.38 7.69 7.18 8.96 7.18 6.42 7.18 3.87 9.38 5.14 11.59 6.42"/></g></g></svg>