<svg xmlns="http://www.w3.org/2000/svg" viewBox="0 0 37.19 11.09"><defs><style>.cls-1{fill:#fc0d1b;}.cls-2{fill:#f7f8f8;isolation:isolate;}</style></defs><title>자산 35</title><g id="레이어_2" data-name="레이어 2"><g id="레이어_1-2" data-name="레이어 1"><path d="M22.62,6.69H20.81v2.7H20.2V6.69H18.25v2.7h-.62V6.69H15.84V6.18h6.78Zm-6-2.86c0-1,1.05-1.62,2.6-1.62s2.6.63,2.6,1.62-1.05,1.63-2.6,1.63S16.62,4.83,16.62,3.83Zm.62,0c0,.68.8,1.12,2,1.12s2-.44,2-1.12-.81-1.12-2-1.12S17.24,3.15,17.24,3.83Z"/><path d="M29.9,7H28.09V9.39h-.61V7H25.53V9.39h-.61V7H23.11V6.44H29.9Zm-.76-1.33H24V2.26h5v.5H24.64v.91h4.23v.49H24.64v1h4.5Z"/><path d="M37.19,7.87v.51H30.4V7.87ZM31.82,2.45V3.86h3.93V2.45h.6V6.34H31.22V2.45Zm0,3.37h3.93V4.36H31.82Z"/><rect class="cls-1" width="13.81" height="11.09" rx="2.31"/><polygon class="cls-2" points="9.2 5.54 7.29 6.64 5.39 7.74 5.39 5.54 5.39 3.34 7.29 4.44 9.2 5.54"/></g></g></svg>